<svg width="26" height="28" viewBox="0 0 26 28" fill="none" xmlns="http://www.w3.org/2000/svg">
<path d="M18.582 17.6101H17.4077L16.9914 17.1778C18.4483 15.3528 19.3253 12.9834 19.3253 10.4059C19.3253 4.65866 14.9994 0 9.66266 0C4.3259 0 0 4.65866 0 10.4059C0 16.1532 4.3259 20.8119 9.66266 20.8119C12.056 20.8119 14.2561 19.8674 15.9508 18.2985L16.3522 18.7467V20.0114L23.785 28L26 25.6146L18.582 17.6101V17.6101ZM9.66266 17.6101C5.96112 17.6101 2.97313 14.3922 2.97313 10.4059C2.97313 6.41967 5.96112 3.20183 9.66266 3.20183C13.3642 3.20183 16.3522 6.41967 16.3522 10.4059C16.3522 14.3922 13.3642 17.6101 9.66266 17.6101Z" fill="black"/>
</svg>
